<?xml version="1.0" standalone="no"?>
<!DOCTYPE svg PUBLIC "-//W3C//DTD SVG 20010904//EN"
 "http://www.w3.org/TR/2001/REC-SVG-20010904/DTD/svg10.dtd">
<svg version="1.0" xmlns="http://www.w3.org/2000/svg"
 width="360.000000pt" height="360.000000pt" viewBox="0 0 360.000000 360.000000"
 preserveAspectRatio="xMidYMid meet">

<g transform="translate(0.000000,360.000000) scale(0.100000,-0.100000)"
fill="#000000" stroke="none">
<path d="M220 2995 l0 -385 385 0 385 0 0 385 0 385 -385 0 -385 0 0 -385z
m660 0 l0 -275 -275 0 -275 0 0 275 0 275 275 0 275 0 0 -275z"/>
<path d="M440 2995 l0 -165 165 0 165 0 0 165 0 165 -165 0 -165 0 0 -165z"/>
<path d="M1100 3325 l0 -55 50 0 50 0 0 -55 0 -55 -50 0 -50 0 0 -165 0 -165
50 0 50 0 0 -55 0 -55 -50 0 -50 0 0 -55 0 -55 50 0 50 0 0 55 0 55 55 0 55 0
0 -55 0 -55 55 0 55 0 0 55 0 55 55 0 55 0 0 -55 0 -55 55 0 55 0 0 -105 0
-105 55 0 55 0 0 -110 0 -110 -55 0 -55 0 0 -40 0 -40 55 0 55 0 0 40 0 40
110 0 110 0 0 -40 0 -40 65 0 65 0 0 -70 0 -70 100 0 100 0 0 55 0 55 50 0 50
0 0 -110 0 -110 -105 0 -105 0 0 -55 0 -55 -45 0 -45 0 0 -55 0 -55 45 0 45 0
0 -55 0 -55 -45 0 c-25 0 -45 -4 -45 -10 0 -6 -83 -10 -230 -10 l-230 0 0 -45
0 -45 -55 0 -55 0 0 -55 0 -55 -55 0 -55 0 0 110 0 110 40 0 40 0 0 55 0 55
-40 0 -40 0 0 55 0 55 -55 0 -55 0 0 55 0 55 -55 0 -55 0 0 55 0 55 110 0 110
0 0 -55 0 -55 40 0 40 0 0 55 0 55 -40 0 -40 0 0 165 0 165 55 0 55 0 0 55 0
55 -55 0 -55 0 0 50 0 50 -55 0 -55 0 0 -50 0 -50 55 0 55 0 0 -55 0 -55 -110
0 -110 0 0 105 0 105 -50 0 -50 0 0 -50 0 -50 -55 0 -55 0 0 50 0 50 -55 0
-55 0 0 -50 0 -50 -55 0 -55 0 0 -55 0 -55 -165 0 -165 0 0 -110 0 -110 55 0
55 0 0 55 0 55 55 0 55 0 0 -55 0 -55 55 0 55 0 0 110 0 110 55 0 55 0 0 -55
0 -55 55 0 55 0 0 -55 0 -55 -55 0 -55 0 0 -55 0 -55 -55 0 -55 0 0 -55 0 -55
55 0 55 0 0 -55 0 -55 -110 0 -110 0 0 -55 0 -55 -55 0 -55 0 0 -55 0 -55 -55
0 -55 0 0 -55 0 -55 55 0 55 0 0 -55 0 -55 55 0 55 0 0 -50 0 -50 -165 0 -165
0 0 -55 0 -55 220 0 220 0 0 105 0 105 -55 0 -55 0 0 55 0 55 -55 0 -55 0 0
55 0 55 275 0 275 0 0 55 0 55 105 0 105 0 0 -55 0 -55 -55 0 -55 0 0 -110 0
-110 -105 0 -105 0 0 55 0 55 -55 0 -55 0 0 -55 0 -55 55 0 55 0 0 -50 0 -50
-55 0 -55 0 0 -55 0 -55 110 0 110 0 0 -55 0 -55 50 0 50 0 0 -55 0 -55 55 0
55 0 0 -110 0 -110 -105 0 -105 0 0 -220 0 -220 50 0 50 0 0 55 0 55 55 0 55
0 0 -55 0 -55 55 0 55 0 0 55 0 55 55 0 55 0 0 -55 0 -55 55 0 55 0 0 110 0
110 -220 0 -220 0 0 55 0 55 165 0 165 0 0 55 0 55 165 0 165 0 0 220 0 220
55 0 55 0 0 105 0 105 55 0 55 0 0 -160 0 -160 55 0 55 0 0 -55 0 -55 -110 0
-110 0 0 -55 0 -55 215 0 215 0 0 -110 0 -110 -50 0 -50 0 0 55 0 55 -55 0
-55 0 0 -55 0 -55 -110 0 -110 0 0 -55 0 -55 -55 0 -55 0 0 -55 0 -55 55 0 55
0 0 -55 0 -55 55 0 55 0 0 110 0 110 55 0 55 0 0 -55 0 -55 55 0 55 0 0 -55 0
-55 160 0 160 0 0 55 0 55 55 0 55 0 0 -55 0 -55 55 0 55 0 0 55 0 55 55 0 55
0 0 -55 0 -55 110 0 110 0 0 55 0 55 -55 0 -55 0 0 110 0 110 55 0 55 0 0 55
0 55 -55 0 -55 0 0 55 0 55 165 0 165 0 0 55 0 55 -165 0 -165 0 0 110 0 110
-55 0 -55 0 0 55 0 55 -55 0 -55 0 0 50 0 50 55 0 55 0 0 55 0 55 110 0 110 0
0 -55 0 -55 -55 0 -55 0 0 -50 0 -50 55 0 55 0 0 50 0 50 55 0 55 0 0 55 0 55
55 0 55 0 0 55 0 55 -55 0 -55 0 0 -55 0 -55 -55 0 -55 0 0 110 0 110 -110 0
-110 0 0 -110 0 -110 -55 0 -55 0 0 110 0 110 -55 0 -55 0 0 -55 0 -55 -55 0
-55 0 0 -55 0 -55 -55 0 -55 0 0 55 0 55 -55 0 -55 0 0 -55 0 -55 -50 0 -50 0
0 165 0 165 50 0 50 0 0 -55 0 -55 110 0 110 0 0 55 0 55 55 0 55 0 0 55 0 55
55 0 55 0 0 -55 0 -55 55 0 55 0 0 55 0 55 110 0 110 0 0 110 0 110 -55 0 -55
0 0 55 0 55 -55 0 -55 0 0 -55 0 -55 -110 0 -110 0 0 55 0 55 55 0 55 0 0 55
0 55 -55 0 -55 0 0 55 0 55 -55 0 -55 0 0 50 0 50 -55 0 -55 0 0 -50 0 -50
-105 0 -105 0 0 -55 0 -55 -220 0 -220 0 0 55 0 55 165 0 165 0 0 50 0 50 55
0 55 0 0 110 0 110 50 0 50 0 0 -55 0 -55 55 0 55 0 0 55 0 55 -55 0 -55 0 0
55 0 55 55 0 55 0 0 55 0 55 -55 0 -55 0 0 -55 0 -55 -160 0 -160 0 0 55 0 55
55 0 55 0 0 55 0 55 -55 0 -55 0 0 55 0 55 55 0 55 0 0 110 0 110 -55 0 -55 0
0 -110 0 -110 -55 0 -55 0 0 55 0 55 -55 0 -55 0 0 -55 0 -55 55 0 55 0 0 -55
0 -55 -110 0 -110 0 0 55 0 55 -55 0 -55 0 0 -110 0 -110 -55 0 -55 0 0 -55 0
-55 -55 0 -55 0 0 55 0 55 -55 0 -55 0 0 165 0 165 110 0 110 0 0 55 0 55
-110 0 -110 0 0 -55 0 -55 -55 0 -55 0 0 55 0 55 -50 0 -50 0 0 -55z m980
-330 l0 -55 -55 0 -55 0 0 -55 0 -55 -55 0 -55 0 0 -55 0 -55 55 0 55 0 0 -55
0 -55 55 0 55 0 0 55 0 55 55 0 55 0 0 -55 0 -55 -55 0 -55 0 0 -55 0 -55 -55
0 -55 0 0 55 0 55 -55 0 -55 0 0 -105 0 -105 -55 0 -55 0 0 105 0 105 -55 0
-55 0 0 55 0 55 -55 0 -55 0 0 55 0 55 55 0 55 0 0 55 0 55 55 0 55 0 0 -55 0
-55 55 0 55 0 0 55 0 55 55 0 55 0 0 55 0 55 55 0 55 0 0 -55z m-770 -110 l0
-55 -55 0 -55 0 0 55 0 55 55 0 55 0 0 -55z m-320 -540 l0 -55 -55 0 -55 0 0
55 0 55 55 0 55 0 0 -55z m1630 -165 l0 -110 55 0 55 0 0 -110 0 -110 -55 0
-55 0 0 -55 0 -55 -110 0 -110 0 0 55 0 55 55 0 55 0 0 55 0 55 55 0 55 0 0
55 0 55 -110 0 -110 0 0 55 0 55 -50 0 -50 0 0 -55 0 -55 -55 0 -55 0 0 55 0
55 55 0 55 0 0 55 0 55 160 0 160 0 0 -110z m-1420 -110 l0 -110 -50 0 -50 0
0 110 0 110 50 0 50 0 0 -110z m-210 -165 l0 -55 55 0 55 0 0 -55 0 -55 -55 0
-55 0 0 -55 0 -55 -55 0 -55 0 0 55 0 55 55 0 55 0 0 55 0 55 -55 0 -55 0 0
55 0 55 55 0 55 0 0 -55z m1960 0 l0 -55 -55 0 -55 0 0 55 0 55 55 0 55 0 0
-55z m-1090 -655 l0 -160 -55 0 -55 0 0 -110 0 -110 -55 0 -55 0 0 -55 0 -55
-55 0 -55 0 0 -55 0 -55 -55 0 -55 0 0 55 0 55 55 0 55 0 0 55 0 55 -110 0
-110 0 0 55 0 55 55 0 55 0 0 55 0 55 -110 0 -110 0 0 55 0 55 55 0 55 0 0 50
0 50 55 0 55 0 0 -105 0 -105 55 0 55 0 0 55 0 55 110 0 110 0 0 105 0 105 55
0 55 0 0 -160z m440 105 l0 -55 50 0 50 0 0 -50 0 -50 -105 0 -105 0 0 50 0
50 -55 0 -55 0 0 55 0 55 110 0 110 0 0 -55z m540 0 l0 -55 -55 0 -55 0 0 -50
0 -50 -110 0 -110 0 0 50 0 50 55 0 55 0 0 55 0 55 110 0 110 0 0 -55z m-540
-320 l0 -55 -55 0 -55 0 0 55 0 55 55 0 55 0 0 -55z m540 -110 l0 -165 -165 0
-165 0 0 165 0 165 165 0 165 0 0 -165z m220 -110 l0 -55 -55 0 -55 0 0 55 0
55 55 0 55 0 0 -55z m-330 -220 l0 -55 55 0 55 0 0 55 0 55 110 0 110 0 0 -55
0 -55 -55 0 -55 0 0 -55 0 -55 -165 0 -165 0 0 -55 0 -55 -55 0 -55 0 0 55 0
55 -55 0 -55 0 0 55 0 55 55 0 55 0 0 55 0 55 110 0 110 0 0 -55z"/>
<path d="M1750 2665 l0 -55 55 0 55 0 0 55 0 55 -55 0 -55 0 0 -55z"/>
<path d="M1530 925 l0 -55 55 0 55 0 0 55 0 55 -55 0 -55 0 0 -55z"/>
<path d="M2620 925 l0 -55 55 0 55 0 0 55 0 55 -55 0 -55 0 0 -55z"/>
<path d="M2620 2995 l0 -385 385 0 385 0 0 385 0 385 -385 0 -385 0 0 -385z
m660 0 l0 -275 -275 0 -275 0 0 275 0 275 275 0 275 0 0 -275z"/>
<path d="M2840 2995 l0 -165 165 0 165 0 0 165 0 165 -165 0 -165 0 0 -165z"/>
<path d="M2300 3215 l0 -55 50 0 50 0 0 55 0 55 -50 0 -50 0 0 -55z"/>
<path d="M220 2450 l0 -50 220 0 220 0 0 50 0 50 -220 0 -220 0 0 -50z"/>
<path d="M2840 2450 l0 -50 110 0 110 0 0 -55 0 -55 110 0 110 0 0 55 0 55 55
0 55 0 0 50 0 50 -55 0 -55 0 0 -50 0 -50 -55 0 -55 0 0 50 0 50 -165 0 -165
0 0 -50z"/>
<path d="M220 2235 l0 -55 55 0 55 0 0 55 0 55 -55 0 -55 0 0 -55z"/>
<path d="M3280 2125 l0 -55 55 0 55 0 0 55 0 55 -55 0 -55 0 0 -55z"/>
<path d="M220 1905 l0 -165 55 0 55 0 0 -55 0 -55 55 0 55 0 0 55 0 55 55 0
55 0 0 110 0 110 -110 0 -110 0 0 55 0 55 -55 0 -55 0 0 -165z m220 -110 l0
-55 -55 0 -55 0 0 55 0 55 55 0 55 0 0 -55z"/>
<path d="M1580 2043 c-37 -14 -60 -47 -60 -85 0 -31 21 -76 105 -222 105 -182
125 -206 175 -206 48 0 68 24 174 205 117 203 125 231 82 281 -27 33 -79 38
-117 12 -13 -8 -49 -59 -78 -112 -30 -53 -58 -96 -61 -96 -3 0 -31 43 -61 96
-29 53 -63 102 -74 110 -25 16 -66 24 -85 17z"/>
<path d="M3280 1795 l0 -165 55 0 55 0 0 165 0 165 -55 0 -55 0 0 -165z"/>
<path d="M220 1355 l0 -55 55 0 55 0 0 55 0 55 -55 0 -55 0 0 -55z"/>
<path d="M3280 1145 l0 -55 -55 0 -55 0 0 -55 0 -55 55 0 55 0 0 55 0 55 55 0
55 0 0 55 0 55 -55 0 -55 0 0 -55z"/>
<path d="M220 595 l0 -385 385 0 385 0 0 385 0 385 -385 0 -385 0 0 -385z
m660 0 l0 -275 -275 0 -275 0 0 275 0 275 275 0 275 0 0 -275z"/>
<path d="M440 595 l0 -165 165 0 165 0 0 165 0 165 -165 0 -165 0 0 -165z"/>
<path d="M3280 485 l0 -55 55 0 55 0 0 55 0 55 -55 0 -55 0 0 -55z"/>
</g>
</svg>
