<svg xmlns="http://www.w3.org/2000/svg" viewBox="0 0 240 240" role="img" aria-label="QR chuyển khoản mẫu">
  <rect width="240" height="240" fill="#ffffff"/>
  <g fill="#211714">
    <rect x="16" y="16" width="58" height="58"/>
    <rect x="166" y="16" width="58" height="58"/>
    <rect x="16" y="166" width="58" height="58"/>
    <rect x="28" y="28" width="34" height="34" fill="#ffffff"/>
    <rect x="178" y="28" width="34" height="34" fill="#ffffff"/>
    <rect x="28" y="178" width="34" height="34" fill="#ffffff"/>
    <rect x="38" y="38" width="14" height="14"/>
    <rect x="188" y="38" width="14" height="14"/>
    <rect x="38" y="188" width="14" height="14"/>
    <rect x="92" y="18" width="16" height="16"/>
    <rect x="122" y="18" width="12" height="28"/>
    <rect x="94" y="52" width="32" height="12"/>
    <rect x="142" y="52" width="12" height="22"/>
    <rect x="88" y="88" width="18" height="18"/>
    <rect x="118" y="88" width="14" height="34"/>
    <rect x="150" y="88" width="34" height="14"/>
    <rect x="204" y="94" width="20" height="20"/>
    <rect x="88" y="136" width="42" height="14"/>
    <rect x="144" y="126" width="18" height="18"/>
    <rect x="180" y="132" width="12" height="42"/>
    <rect x="204" y="146" width="20" height="12"/>
    <rect x="92" y="170" width="18" height="54"/>
    <rect x="122" y="166" width="42" height="14"/>
    <rect x="142" y="194" width="16" height="30"/>
    <rect x="172" y="190" width="52" height="16"/>
    <rect x="202" y="214" width="22" height="10"/>
  </g>
  <rect x="73" y="105" width="94" height="31" rx="6" fill="#ffffff"/>
  <text x="120" y="126" text-anchor="middle" font-family="Arial, sans-serif" font-size="15" font-weight="700" fill="#9f2f19">QR mẫu</text>
</svg>
