<?xml version="1.0" standalone="no"?>
<!DOCTYPE svg PUBLIC "-//W3C//DTD SVG 20010904//EN"
 "http://www.w3.org/TR/2001/REC-SVG-20010904/DTD/svg10.dtd">
<svg version="1.0" xmlns="http://www.w3.org/2000/svg"
 width="1536.000000pt" height="1024.000000pt" viewBox="0 0 1536.000000 1024.000000"
 preserveAspectRatio="xMidYMid meet">

<g transform="translate(0.000000,1024.000000) scale(0.100000,-0.100000)"
fill="#000000" stroke="none">
<path d="M8720 8549 c-44 -13 -78 -44 -96 -86 -30 -69 -7 -162 33 -137 14 9
17 21 15 51 -4 53 28 94 76 95 37 1 52 -13 52 -50 0 -22 -18 -44 -69 -85 -24
-19 -25 -50 -1 -54 8 -2 39 10 67 27 127 73 122 224 -8 244 -19 3 -50 0 -69
-5z m-68 -211 c-7 -7 -12 -8 -12 -2 0 14 12 26 19 19 2 -3 -1 -11 -7 -17z
m108 -32 c0 -2 -7 -7 -16 -10 -8 -3 -12 -2 -9 4 6 10 25 14 25 6z"/>
<path d="M9271 8342 c-38 -18 -68 -55 -73 -87 -4 -29 43 -32 86 -6 63 39 125
20 112 -34 -15 -60 -80 -68 -231 -27 -111 30 -188 39 -347 41 -141 2 -288 -16
-378 -46 -172 -58 -295 -173 -351 -329 -30 -82 -38 -297 -15 -404 62 -294 302
-439 730 -440 434 0 676 148 747 458 16 70 13 267 -5 335 -24 87 -62 154 -123
215 -29 30 -53 55 -51 56 45 20 85 46 103 68 51 61 39 152 -24 195 -43 29
-130 31 -180 5z m199 -186 c0 -2 -8 -10 -17 -17 -16 -13 -17 -12 -4 4 13 16
21 21 21 13z m-445 -101 c85 -18 148 -50 211 -108 98 -89 130 -185 122 -365
-4 -99 -8 -117 -36 -175 -57 -116 -153 -184 -306 -220 -79 -18 -347 -14 -430
6 -144 36 -254 123 -295 232 -45 120 -44 282 1 404 40 105 159 193 304 225 85
18 343 19 429 1z"/>
<path d="M5400 7632 l0 -568 98 2 97 2 3 196 2 195 383 3 382 3 56 26 c71 33
119 82 155 156 27 54 29 67 29 173 0 185 -48 281 -172 342 l-68 33 -482 3
-483 3 0 -569z m888 393 c80 -34 122 -102 122 -200 0 -110 -54 -184 -150 -204
-31 -7 -174 -11 -355 -11 l-305 0 0 215 0 215 325 0 c271 0 332 -3 363 -15z"/>
<path d="M6700 7631 l0 -569 95 -1 95 -1 0 245 0 245 435 0 435 0 0 -244 0
-244 95 1 95 1 0 568 0 568 -95 0 -95 0 0 -245 0 -245 -435 0 -435 0 0 245 0
245 -95 0 -95 0 0 -569z"/>
<path d="M4400 6520 l0 -90 235 0 235 0 0 -550 0 -550 105 0 105 0 0 550 0
550 220 0 221 0 -3 88 -3 87 -557 3 -558 2 0 -90z"/>
<path d="M5610 5970 l0 -640 105 0 105 0 0 260 0 260 313 0 c189 0 327 -4 350
-11 21 -6 56 -26 77 -45 60 -54 72 -101 76 -294 l4 -165 111 -3 111 -3 -4 183
c-5 197 -13 237 -64 309 -15 22 -45 50 -67 64 l-40 23 40 20 c131 67 190 235
147 422 -19 84 -61 149 -122 190 -95 63 -97 63 -644 67 l-498 3 0 -640z m907
459 c75 -13 117 -43 144 -104 37 -80 17 -198 -42 -252 -60 -55 -77 -57 -451
-61 l-348 -4 0 216 0 216 317 0 c187 0 342 -5 380 -11z"/>
<path d="M7010 5971 l0 -641 100 0 100 0 0 638 0 637 -100 3 -100 3 0 -640z"/>
<path d="M7400 5968 l0 -638 100 0 100 0 2 527 3 526 210 -239 c287 -327 618
-698 679 -761 l50 -53 118 0 118 0 0 638 0 637 -100 -3 -100 -3 2 -515 c2
-283 1 -514 -2 -514 -3 0 -46 46 -95 102 -186 210 -567 638 -696 781 l-134
148 -128 2 -127 2 0 -637z"/>
<path d="M8960 5968 l0 -638 95 0 95 0 2 268 3 267 483 3 482 2 0 -270 0 -270
105 0 105 0 -2 636 -3 636 -100 0 -100 0 -3 -286 -2 -286 -485 0 -485 0 0 288
0 287 -95 0 -95 0 0 -637z m113 615 c-7 -2 -19 -2 -25 0 -7 3 -2 5 12 5 14 0
19 -2 13 -5z m64 -325 c-3 -8 -6 -5 -6 6 -1 11 2 17 5 13 3 -3 4 -12 1 -19z"/>
<path d="M7063 5250 c-45 -18 -56 -74 -20 -108 69 -65 205 -6 169 73 -19 40
-93 58 -149 35z"/>
</g>
</svg>
