<?xml version="1.0" standalone="no"?>
<!DOCTYPE svg PUBLIC "-//W3C//DTD SVG 20010904//EN"
 "http://www.w3.org/TR/2001/REC-SVG-20010904/DTD/svg10.dtd">
<svg version="1.0" xmlns="http://www.w3.org/2000/svg"
 width="400.000000pt" height="334.000000pt" viewBox="0 0 400.000000 334.000000"
 preserveAspectRatio="xMidYMid meet">

<g transform="translate(0.000000,334.000000) scale(0.100000,-0.100000)"
fill="#000000" stroke="none">
<path d="M2764 2900 c-21 -8 -39 -38 -29 -48 3 -3 19 2 34 11 35 21 62 13 58
-17 -4 -33 -16 -46 -43 -46 -17 0 -24 -5 -24 -19 0 -27 20 -38 32 -17 5 9 17
16 27 16 25 0 51 32 51 61 0 30 -9 43 -37 58 -25 13 -40 13 -69 1z"/>
<path d="M3060 2747 c-14 -7 -26 -23 -28 -35 -4 -28 5 -28 34 -1 28 26 64 18
64 -15 0 -51 -43 -59 -117 -22 -68 34 -167 49 -287 43 -127 -6 -194 -28 -256
-84 -61 -54 -80 -107 -80 -219 0 -70 4 -89 28 -135 54 -104 163 -152 347 -153
146 0 231 25 303 89 66 59 85 114 80 228 -2 59 -9 95 -26 128 -26 54 -27 59
-7 59 22 0 55 37 55 60 0 26 -43 70 -67 70 -10 0 -29 -6 -43 -13z m-110 -124
c51 -23 106 -79 117 -121 16 -54 9 -155 -13 -196 -44 -84 -193 -129 -359 -108
-162 21 -236 92 -235 224 1 96 32 154 102 189 61 31 107 38 228 35 89 -2 125
-8 160 -23z"/>
<path d="M960 2421 l0 -291 35 0 35 0 0 99 0 99 203 4 c193 3 204 5 247 28 59
33 80 75 80 163 0 91 -18 130 -72 159 -41 22 -55 23 -285 26 l-243 4 0 -291z
m470 206 c46 -16 62 -49 57 -116 -7 -100 -49 -115 -307 -109 l-145 3 -3 118
-3 117 183 -1 c114 0 196 -5 218 -12z"/>
<path d="M1630 2419 l0 -290 33 3 32 3 3 128 3 127 264 0 264 0 3 -127 3 -128
33 -3 32 -3 0 290 0 291 -35 0 -35 0 0 -130 0 -130 -265 0 -265 0 0 130 0 130
-35 0 -35 0 0 -291z"/>
<path d="M470 1835 l0 -35 140 0 140 0 0 -255 0 -255 35 0 35 0 2 253 3 252
143 3 142 3 0 -256 0 -255 35 0 34 0 3 118 3 117 195 3 c266 3 272 1 280 -142
l5 -91 39 0 39 0 -2 89 c-2 95 -15 134 -53 161 l-23 16 29 21 c81 60 73 212
-14 263 -34 19 -53 20 -622 23 l-588 3 0 -36z m1182 -63 c34 -33 31 -104 -6
-140 l-26 -27 -218 0 -217 0 -3 84 c-2 46 0 91 2 98 5 12 45 14 226 11 213 -3
220 -4 242 -26z"/>
<path d="M1832 1583 l3 -288 33 -3 32 -3 0 290 0 291 -35 0 -35 0 2 -287z"/>
<path d="M2030 1580 l0 -290 35 0 35 0 0 245 c0 138 4 245 9 245 5 0 111 -110
236 -245 l227 -245 49 0 49 0 0 290 0 290 -35 0 -35 0 0 -245 c0 -135 -4 -245
-8 -245 -5 0 -32 26 -61 58 -29 31 -130 141 -225 244 l-171 186 -52 1 -53 1 0
-290z"/>
<path d="M2795 1857 c-3 -7 -4 -136 -3 -287 l3 -275 35 0 35 0 3 128 3 127
264 0 264 0 3 -127 3 -128 33 -3 32 -3 0 290 0 291 -35 0 -35 0 0 -130 0 -130
-265 0 -265 0 0 130 0 130 -35 0 c-20 0 -38 -6 -40 -13z"/>
<path d="M1847 1243 c-10 -15 10 -35 29 -31 26 5 24 32 -3 36 -11 2 -23 -1
-26 -5z"/>
</g>
</svg>
